<mxfile host="app.diagrams.net" modified="2022-09-28T21:00:15.322Z" agent="5.0 (Windows NT 10.0; Win64; x64) AppleWebKit/537.36 (KHTML, like Gecko) Chrome/105.0.0.0 Safari/537.36" etag="7MyRG_rdM_G06ES23tCr" version="20.3.6" type="github">
  <diagram id="301SIHyl_arGC_1ZSfzn" name="Page-1">
    <mxGraphModel dx="2840" dy="1287" grid="1" gridSize="10" guides="1" tooltips="1" connect="1" arrows="1" fold="1" page="1" pageScale="1" pageWidth="1600" pageHeight="900" math="0" shadow="0">
      <root>
        <mxCell id="0" />
        <mxCell id="1" parent="0" />
        <mxCell id="OEp4yZZmpIIPvY6MrYqO-21" value="Region" style="points=[[0,0],[0.25,0],[0.5,0],[0.75,0],[1,0],[1,0.25],[1,0.5],[1,0.75],[1,1],[0.75,1],[0.5,1],[0.25,1],[0,1],[0,0.75],[0,0.5],[0,0.25]];outlineConnect=0;gradientColor=none;html=1;whiteSpace=wrap;fontSize=12;fontStyle=0;container=1;pointerEvents=0;collapsible=0;recursiveResize=0;shape=mxgraph.aws4.group;grIcon=mxgraph.aws4.group_region;strokeColor=#147EBA;fillColor=none;verticalAlign=top;align=left;spacingLeft=30;fontColor=#147EBA;dashed=1;labelBorderColor=default;fontFamily=Helvetica;" parent="1" vertex="1">
          <mxGeometry x="460" y="70" width="1190" height="530" as="geometry" />
        </mxCell>
        <mxCell id="1Mr_jDjq1AFkPDHEAxzT-25" style="edgeStyle=orthogonalEdgeStyle;rounded=0;orthogonalLoop=1;jettySize=auto;html=1;exitX=1;exitY=0.5;exitDx=0;exitDy=0;entryX=0;entryY=0.5;entryDx=0;entryDy=0;" edge="1" parent="OEp4yZZmpIIPvY6MrYqO-21" source="1Mr_jDjq1AFkPDHEAxzT-21" target="1Mr_jDjq1AFkPDHEAxzT-24">
          <mxGeometry relative="1" as="geometry" />
        </mxCell>
        <mxCell id="1Mr_jDjq1AFkPDHEAxzT-35" style="edgeStyle=orthogonalEdgeStyle;rounded=0;orthogonalLoop=1;jettySize=auto;html=1;exitX=1;exitY=0.5;exitDx=0;exitDy=0;exitPerimeter=0;entryX=0;entryY=0.5;entryDx=0;entryDy=0;entryPerimeter=0;" edge="1" parent="OEp4yZZmpIIPvY6MrYqO-21" source="OEp4yZZmpIIPvY6MrYqO-9" target="1Mr_jDjq1AFkPDHEAxzT-30">
          <mxGeometry relative="1" as="geometry" />
        </mxCell>
        <mxCell id="OEp4yZZmpIIPvY6MrYqO-9" value="DataSync" style="sketch=0;points=[[0,0,0],[0.25,0,0],[0.5,0,0],[0.75,0,0],[1,0,0],[0,1,0],[0.25,1,0],[0.5,1,0],[0.75,1,0],[1,1,0],[0,0.25,0],[0,0.5,0],[0,0.75,0],[1,0.25,0],[1,0.5,0],[1,0.75,0]];outlineConnect=0;fontColor=#232F3E;gradientColor=#4AB29A;gradientDirection=north;fillColor=#116D5B;strokeColor=#ffffff;dashed=0;verticalLabelPosition=bottom;verticalAlign=top;align=center;html=1;fontSize=12;fontStyle=0;aspect=fixed;shape=mxgraph.aws4.resourceIcon;resIcon=mxgraph.aws4.datasync;labelBorderColor=default;fontFamily=Helvetica;" parent="OEp4yZZmpIIPvY6MrYqO-21" vertex="1">
          <mxGeometry x="20" y="160" width="78" height="78" as="geometry" />
        </mxCell>
        <mxCell id="1Mr_jDjq1AFkPDHEAxzT-4" value="QuickSight" style="sketch=0;points=[[0,0,0],[0.25,0,0],[0.5,0,0],[0.75,0,0],[1,0,0],[0,1,0],[0.25,1,0],[0.5,1,0],[0.75,1,0],[1,1,0],[0,0.25,0],[0,0.5,0],[0,0.75,0],[1,0.25,0],[1,0.5,0],[1,0.75,0]];outlineConnect=0;fontColor=#232F3E;gradientColor=#945DF2;gradientDirection=north;fillColor=#5A30B5;strokeColor=#ffffff;dashed=0;verticalLabelPosition=bottom;verticalAlign=top;align=center;html=1;fontSize=12;fontStyle=0;aspect=fixed;shape=mxgraph.aws4.resourceIcon;resIcon=mxgraph.aws4.quicksight;" vertex="1" parent="OEp4yZZmpIIPvY6MrYqO-21">
          <mxGeometry x="1100" y="181" width="78" height="78" as="geometry" />
        </mxCell>
        <mxCell id="1Mr_jDjq1AFkPDHEAxzT-26" style="edgeStyle=orthogonalEdgeStyle;rounded=0;orthogonalLoop=1;jettySize=auto;html=1;exitX=1;exitY=0.5;exitDx=0;exitDy=0;entryX=0;entryY=0.5;entryDx=0;entryDy=0;entryPerimeter=0;" edge="1" parent="OEp4yZZmpIIPvY6MrYqO-21" source="1Mr_jDjq1AFkPDHEAxzT-24" target="1Mr_jDjq1AFkPDHEAxzT-4">
          <mxGeometry relative="1" as="geometry" />
        </mxCell>
        <mxCell id="1Mr_jDjq1AFkPDHEAxzT-34" style="edgeStyle=orthogonalEdgeStyle;rounded=0;orthogonalLoop=1;jettySize=auto;html=1;exitX=1;exitY=0.5;exitDx=0;exitDy=0;exitPerimeter=0;entryX=0;entryY=0.5;entryDx=0;entryDy=0;" edge="1" parent="OEp4yZZmpIIPvY6MrYqO-21" source="1Mr_jDjq1AFkPDHEAxzT-30" target="1Mr_jDjq1AFkPDHEAxzT-21">
          <mxGeometry relative="1" as="geometry" />
        </mxCell>
        <mxCell id="1Mr_jDjq1AFkPDHEAxzT-30" value="Kinesis" style="sketch=0;points=[[0,0,0],[0.25,0,0],[0.5,0,0],[0.75,0,0],[1,0,0],[0,1,0],[0.25,1,0],[0.5,1,0],[0.75,1,0],[1,1,0],[0,0.25,0],[0,0.5,0],[0,0.75,0],[1,0.25,0],[1,0.5,0],[1,0.75,0]];outlineConnect=0;fontColor=#232F3E;gradientColor=#945DF2;gradientDirection=north;fillColor=#5A30B5;strokeColor=#ffffff;dashed=0;verticalLabelPosition=bottom;verticalAlign=top;align=center;html=1;fontSize=12;fontStyle=0;aspect=fixed;shape=mxgraph.aws4.resourceIcon;resIcon=mxgraph.aws4.kinesis;" vertex="1" parent="OEp4yZZmpIIPvY6MrYqO-21">
          <mxGeometry x="130" y="160" width="78" height="78" as="geometry" />
        </mxCell>
        <mxCell id="1Mr_jDjq1AFkPDHEAxzT-31" value="" style="group" vertex="1" connectable="0" parent="OEp4yZZmpIIPvY6MrYqO-21">
          <mxGeometry x="870" y="20" width="192" height="400" as="geometry" />
        </mxCell>
        <mxCell id="1Mr_jDjq1AFkPDHEAxzT-24" value="Value Layer" style="fillColor=none;strokeColor=#5A6C86;dashed=1;verticalAlign=top;fontStyle=0;fontColor=#5A6C86;" vertex="1" parent="1Mr_jDjq1AFkPDHEAxzT-31">
          <mxGeometry width="192" height="400" as="geometry" />
        </mxCell>
        <mxCell id="1Mr_jDjq1AFkPDHEAxzT-2" value="Redshift" style="sketch=0;points=[[0,0,0],[0.25,0,0],[0.5,0,0],[0.75,0,0],[1,0,0],[0,1,0],[0.25,1,0],[0.5,1,0],[0.75,1,0],[1,1,0],[0,0.25,0],[0,0.5,0],[0,0.75,0],[1,0.25,0],[1,0.5,0],[1,0.75,0]];outlineConnect=0;fontColor=#232F3E;gradientColor=#945DF2;gradientDirection=north;fillColor=#5A30B5;strokeColor=#ffffff;dashed=0;verticalLabelPosition=bottom;verticalAlign=top;align=center;html=1;fontSize=12;fontStyle=0;aspect=fixed;shape=mxgraph.aws4.resourceIcon;resIcon=mxgraph.aws4.redshift;" vertex="1" parent="1Mr_jDjq1AFkPDHEAxzT-31">
          <mxGeometry x="57" y="142" width="78" height="78" as="geometry" />
        </mxCell>
        <mxCell id="1Mr_jDjq1AFkPDHEAxzT-22" value="SageMaker" style="sketch=0;points=[[0,0,0],[0.25,0,0],[0.5,0,0],[0.75,0,0],[1,0,0],[0,1,0],[0.25,1,0],[0.5,1,0],[0.75,1,0],[1,1,0],[0,0.25,0],[0,0.5,0],[0,0.75,0],[1,0.25,0],[1,0.5,0],[1,0.75,0]];outlineConnect=0;fontColor=#232F3E;gradientColor=#4AB29A;gradientDirection=north;fillColor=#116D5B;strokeColor=#ffffff;dashed=0;verticalLabelPosition=bottom;verticalAlign=top;align=center;html=1;fontSize=12;fontStyle=0;aspect=fixed;shape=mxgraph.aws4.resourceIcon;resIcon=mxgraph.aws4.sagemaker;" vertex="1" parent="1Mr_jDjq1AFkPDHEAxzT-31">
          <mxGeometry x="57" y="270" width="78" height="78" as="geometry" />
        </mxCell>
        <mxCell id="1Mr_jDjq1AFkPDHEAxzT-23" value="Athena" style="sketch=0;points=[[0,0,0],[0.25,0,0],[0.5,0,0],[0.75,0,0],[1,0,0],[0,1,0],[0.25,1,0],[0.5,1,0],[0.75,1,0],[1,1,0],[0,0.25,0],[0,0.5,0],[0,0.75,0],[1,0.25,0],[1,0.5,0],[1,0.75,0]];outlineConnect=0;fontColor=#232F3E;gradientColor=#945DF2;gradientDirection=north;fillColor=#5A30B5;strokeColor=#ffffff;dashed=0;verticalLabelPosition=bottom;verticalAlign=top;align=center;html=1;fontSize=12;fontStyle=0;aspect=fixed;shape=mxgraph.aws4.resourceIcon;resIcon=mxgraph.aws4.athena;" vertex="1" parent="1Mr_jDjq1AFkPDHEAxzT-31">
          <mxGeometry x="57" y="31" width="78" height="78" as="geometry" />
        </mxCell>
        <mxCell id="1Mr_jDjq1AFkPDHEAxzT-33" value="" style="group" vertex="1" connectable="0" parent="OEp4yZZmpIIPvY6MrYqO-21">
          <mxGeometry x="230" y="20" width="590" height="400" as="geometry" />
        </mxCell>
        <mxCell id="1Mr_jDjq1AFkPDHEAxzT-21" value="Ingest Layer" style="fillColor=none;strokeColor=#5A6C86;dashed=1;verticalAlign=top;fontStyle=0;fontColor=#5A6C86;" vertex="1" parent="1Mr_jDjq1AFkPDHEAxzT-33">
          <mxGeometry width="590" height="400" as="geometry" />
        </mxCell>
        <mxCell id="1Mr_jDjq1AFkPDHEAxzT-32" value="" style="group" vertex="1" connectable="0" parent="1Mr_jDjq1AFkPDHEAxzT-33">
          <mxGeometry x="10" y="10" width="535" height="332" as="geometry" />
        </mxCell>
        <mxCell id="OEp4yZZmpIIPvY6MrYqO-17" value="S3 Bucket&lt;br&gt;Raw Data" style="sketch=0;outlineConnect=0;fontColor=#232F3E;gradientColor=none;fillColor=#3F8624;strokeColor=none;dashed=0;verticalLabelPosition=bottom;verticalAlign=top;align=center;html=1;fontSize=12;fontStyle=0;aspect=fixed;pointerEvents=1;shape=mxgraph.aws4.bucket_with_objects;labelBorderColor=default;fontFamily=Helvetica;" parent="1Mr_jDjq1AFkPDHEAxzT-32" vertex="1">
          <mxGeometry x="30" y="151" width="75" height="78" as="geometry" />
        </mxCell>
        <mxCell id="1Mr_jDjq1AFkPDHEAxzT-20" value="Data Lake" style="sketch=0;outlineConnect=0;fontColor=#232F3E;gradientColor=none;fillColor=#4D27AA;strokeColor=none;dashed=0;verticalLabelPosition=bottom;verticalAlign=top;align=center;html=1;fontSize=12;fontStyle=0;aspect=fixed;pointerEvents=1;shape=mxgraph.aws4.data_lake_resource_icon;" vertex="1" parent="1Mr_jDjq1AFkPDHEAxzT-32">
          <mxGeometry width="40" height="40" as="geometry" />
        </mxCell>
        <mxCell id="1Mr_jDjq1AFkPDHEAxzT-27" value="" style="group" vertex="1" connectable="0" parent="1Mr_jDjq1AFkPDHEAxzT-32">
          <mxGeometry x="140" y="80" width="270" height="252" as="geometry" />
        </mxCell>
        <mxCell id="1Mr_jDjq1AFkPDHEAxzT-5" value="Data Transformation Layer" style="fillColor=none;strokeColor=#5A6C86;dashed=1;verticalAlign=top;fontStyle=0;fontColor=#5A6C86;" vertex="1" parent="1Mr_jDjq1AFkPDHEAxzT-27">
          <mxGeometry width="270" height="252" as="geometry" />
        </mxCell>
        <mxCell id="1Mr_jDjq1AFkPDHEAxzT-3" value="Gkue" style="sketch=0;points=[[0,0,0],[0.25,0,0],[0.5,0,0],[0.75,0,0],[1,0,0],[0,1,0],[0.25,1,0],[0.5,1,0],[0.75,1,0],[1,1,0],[0,0.25,0],[0,0.5,0],[0,0.75,0],[1,0.25,0],[1,0.5,0],[1,0.75,0]];outlineConnect=0;fontColor=#232F3E;gradientColor=#945DF2;gradientDirection=north;fillColor=#5A30B5;strokeColor=#ffffff;dashed=0;verticalLabelPosition=bottom;verticalAlign=top;align=center;html=1;fontSize=12;fontStyle=0;aspect=fixed;shape=mxgraph.aws4.resourceIcon;resIcon=mxgraph.aws4.glue;" vertex="1" parent="1Mr_jDjq1AFkPDHEAxzT-27">
          <mxGeometry x="40" y="35" width="78" height="78" as="geometry" />
        </mxCell>
        <mxCell id="1Mr_jDjq1AFkPDHEAxzT-6" value="Lambda" style="sketch=0;points=[[0,0,0],[0.25,0,0],[0.5,0,0],[0.75,0,0],[1,0,0],[0,1,0],[0.25,1,0],[0.5,1,0],[0.75,1,0],[1,1,0],[0,0.25,0],[0,0.5,0],[0,0.75,0],[1,0.25,0],[1,0.5,0],[1,0.75,0]];outlineConnect=0;fontColor=#232F3E;gradientColor=#F78E04;gradientDirection=north;fillColor=#D05C17;strokeColor=#ffffff;dashed=0;verticalLabelPosition=bottom;verticalAlign=top;align=center;html=1;fontSize=12;fontStyle=0;aspect=fixed;shape=mxgraph.aws4.resourceIcon;resIcon=mxgraph.aws4.lambda;" vertex="1" parent="1Mr_jDjq1AFkPDHEAxzT-27">
          <mxGeometry x="160" y="34" width="74" height="74" as="geometry" />
        </mxCell>
        <mxCell id="1Mr_jDjq1AFkPDHEAxzT-7" value="Comprehend" style="sketch=0;points=[[0,0,0],[0.25,0,0],[0.5,0,0],[0.75,0,0],[1,0,0],[0,1,0],[0.25,1,0],[0.5,1,0],[0.75,1,0],[1,1,0],[0,0.25,0],[0,0.5,0],[0,0.75,0],[1,0.25,0],[1,0.5,0],[1,0.75,0]];outlineConnect=0;fontColor=#232F3E;gradientColor=#4AB29A;gradientDirection=north;fillColor=#116D5B;strokeColor=#ffffff;dashed=0;verticalLabelPosition=bottom;verticalAlign=top;align=center;html=1;fontSize=12;fontStyle=0;aspect=fixed;shape=mxgraph.aws4.resourceIcon;resIcon=mxgraph.aws4.comprehend;" vertex="1" parent="1Mr_jDjq1AFkPDHEAxzT-27">
          <mxGeometry x="42" y="146" width="78" height="78" as="geometry" />
        </mxCell>
        <mxCell id="1Mr_jDjq1AFkPDHEAxzT-8" value="CloudWatch" style="sketch=0;points=[[0,0,0],[0.25,0,0],[0.5,0,0],[0.75,0,0],[1,0,0],[0,1,0],[0.25,1,0],[0.5,1,0],[0.75,1,0],[1,1,0],[0,0.25,0],[0,0.5,0],[0,0.75,0],[1,0.25,0],[1,0.5,0],[1,0.75,0]];points=[[0,0,0],[0.25,0,0],[0.5,0,0],[0.75,0,0],[1,0,0],[0,1,0],[0.25,1,0],[0.5,1,0],[0.75,1,0],[1,1,0],[0,0.25,0],[0,0.5,0],[0,0.75,0],[1,0.25,0],[1,0.5,0],[1,0.75,0]];outlineConnect=0;fontColor=#232F3E;gradientColor=#F34482;gradientDirection=north;fillColor=#BC1356;strokeColor=#ffffff;dashed=0;verticalLabelPosition=bottom;verticalAlign=top;align=center;html=1;fontSize=12;fontStyle=0;aspect=fixed;shape=mxgraph.aws4.resourceIcon;resIcon=mxgraph.aws4.cloudwatch_2;" vertex="1" parent="1Mr_jDjq1AFkPDHEAxzT-27">
          <mxGeometry x="160" y="146" width="78" height="78" as="geometry" />
        </mxCell>
        <mxCell id="1Mr_jDjq1AFkPDHEAxzT-19" value="S3 Bucket&lt;br&gt;Processed Data" style="sketch=0;outlineConnect=0;fontColor=#232F3E;gradientColor=none;fillColor=#3F8624;strokeColor=none;dashed=0;verticalLabelPosition=bottom;verticalAlign=top;align=center;html=1;fontSize=12;fontStyle=0;aspect=fixed;pointerEvents=1;shape=mxgraph.aws4.bucket_with_objects;labelBorderColor=default;fontFamily=Helvetica;" vertex="1" parent="1Mr_jDjq1AFkPDHEAxzT-32">
          <mxGeometry x="460" y="151" width="75" height="78" as="geometry" />
        </mxCell>
        <mxCell id="OEp4yZZmpIIPvY6MrYqO-22" value="Data Service" style="fillColor=none;strokeColor=#5A6C86;dashed=1;verticalAlign=top;fontStyle=0;fontColor=#5A6C86;labelBorderColor=default;fontFamily=Helvetica;" parent="1" vertex="1">
          <mxGeometry x="1180" y="670" width="620" height="164" as="geometry" />
        </mxCell>
        <mxCell id="OEp4yZZmpIIPvY6MrYqO-24" value="DynamoDB" style="sketch=0;points=[[0,0,0],[0.25,0,0],[0.5,0,0],[0.75,0,0],[1,0,0],[0,1,0],[0.25,1,0],[0.5,1,0],[0.75,1,0],[1,1,0],[0,0.25,0],[0,0.5,0],[0,0.75,0],[1,0.25,0],[1,0.5,0],[1,0.75,0]];outlineConnect=0;fontColor=#232F3E;gradientColor=#4D72F3;gradientDirection=north;fillColor=#3334B9;strokeColor=#ffffff;dashed=0;verticalLabelPosition=bottom;verticalAlign=top;align=center;html=1;fontSize=12;fontStyle=0;aspect=fixed;shape=mxgraph.aws4.resourceIcon;resIcon=mxgraph.aws4.dynamodb;labelBorderColor=default;fontFamily=Helvetica;" parent="1" vertex="1">
          <mxGeometry x="1220" y="710" width="78" height="78" as="geometry" />
        </mxCell>
        <mxCell id="OEp4yZZmpIIPvY6MrYqO-25" value="Aurora" style="sketch=0;points=[[0,0,0],[0.25,0,0],[0.5,0,0],[0.75,0,0],[1,0,0],[0,1,0],[0.25,1,0],[0.5,1,0],[0.75,1,0],[1,1,0],[0,0.25,0],[0,0.5,0],[0,0.75,0],[1,0.25,0],[1,0.5,0],[1,0.75,0]];outlineConnect=0;fontColor=#232F3E;gradientColor=#4D72F3;gradientDirection=north;fillColor=#3334B9;strokeColor=#ffffff;dashed=0;verticalLabelPosition=bottom;verticalAlign=top;align=center;html=1;fontSize=12;fontStyle=0;aspect=fixed;shape=mxgraph.aws4.resourceIcon;resIcon=mxgraph.aws4.aurora;labelBorderColor=default;fontFamily=Helvetica;" parent="1" vertex="1">
          <mxGeometry x="1330" y="713" width="78" height="78" as="geometry" />
        </mxCell>
        <mxCell id="OEp4yZZmpIIPvY6MrYqO-26" value="EMR" style="sketch=0;points=[[0,0,0],[0.25,0,0],[0.5,0,0],[0.75,0,0],[1,0,0],[0,1,0],[0.25,1,0],[0.5,1,0],[0.75,1,0],[1,1,0],[0,0.25,0],[0,0.5,0],[0,0.75,0],[1,0.25,0],[1,0.5,0],[1,0.75,0]];outlineConnect=0;fontColor=#232F3E;gradientColor=#945DF2;gradientDirection=north;fillColor=#5A30B5;strokeColor=#ffffff;dashed=0;verticalLabelPosition=bottom;verticalAlign=top;align=center;html=1;fontSize=12;fontStyle=0;aspect=fixed;shape=mxgraph.aws4.resourceIcon;resIcon=mxgraph.aws4.emr;labelBorderColor=default;fontFamily=Helvetica;" parent="1" vertex="1">
          <mxGeometry x="1590" y="710" width="78" height="78" as="geometry" />
        </mxCell>
        <mxCell id="OEp4yZZmpIIPvY6MrYqO-31" value="AWS Security Service" style="fillColor=none;strokeColor=#5A6C86;dashed=1;verticalAlign=top;fontStyle=0;fontColor=#5A6C86;shadow=0;glass=0;labelBorderColor=default;fontFamily=Helvetica;fontSize=17;" parent="1" vertex="1">
          <mxGeometry x="90" y="490" width="310" height="690" as="geometry" />
        </mxCell>
        <mxCell id="OEp4yZZmpIIPvY6MrYqO-32" value="" style="sketch=0;points=[[0,0,0],[0.25,0,0],[0.5,0,0],[0.75,0,0],[1,0,0],[0,1,0],[0.25,1,0],[0.5,1,0],[0.75,1,0],[1,1,0],[0,0.25,0],[0,0.5,0],[0,0.75,0],[1,0.25,0],[1,0.5,0],[1,0.75,0]];outlineConnect=0;fontColor=#232F3E;gradientColor=#F54749;gradientDirection=north;fillColor=#C7131F;strokeColor=#ffffff;dashed=0;verticalLabelPosition=bottom;verticalAlign=top;align=center;html=1;fontSize=12;fontStyle=0;aspect=fixed;shape=mxgraph.aws4.resourceIcon;resIcon=mxgraph.aws4.guardduty;shadow=0;glass=0;labelBorderColor=default;fontFamily=Helvetica;" parent="1" vertex="1">
          <mxGeometry x="120" y="540" width="78" height="78" as="geometry" />
        </mxCell>
        <mxCell id="C7DWHRsoOKwwfCK8KFIu-1" value="" style="sketch=0;points=[[0,0,0],[0.25,0,0],[0.5,0,0],[0.75,0,0],[1,0,0],[0,1,0],[0.25,1,0],[0.5,1,0],[0.75,1,0],[1,1,0],[0,0.25,0],[0,0.5,0],[0,0.75,0],[1,0.25,0],[1,0.5,0],[1,0.75,0]];outlineConnect=0;fontColor=#232F3E;gradientColor=#F54749;gradientDirection=north;fillColor=#C7131F;strokeColor=#ffffff;dashed=0;verticalLabelPosition=bottom;verticalAlign=top;align=center;html=1;fontSize=12;fontStyle=0;aspect=fixed;shape=mxgraph.aws4.resourceIcon;resIcon=mxgraph.aws4.identity_and_access_management;" parent="1" vertex="1">
          <mxGeometry x="270" y="540" width="78" height="78" as="geometry" />
        </mxCell>
        <mxCell id="C7DWHRsoOKwwfCK8KFIu-2" value="" style="sketch=0;points=[[0,0,0],[0.25,0,0],[0.5,0,0],[0.75,0,0],[1,0,0],[0,1,0],[0.25,1,0],[0.5,1,0],[0.75,1,0],[1,1,0],[0,0.25,0],[0,0.5,0],[0,0.75,0],[1,0.25,0],[1,0.5,0],[1,0.75,0]];outlineConnect=0;fontColor=#232F3E;gradientColor=#F54749;gradientDirection=north;fillColor=#C7131F;strokeColor=#ffffff;dashed=0;verticalLabelPosition=bottom;verticalAlign=top;align=center;html=1;fontSize=12;fontStyle=0;aspect=fixed;shape=mxgraph.aws4.resourceIcon;resIcon=mxgraph.aws4.key_management_service;" parent="1" vertex="1">
          <mxGeometry x="120" y="670" width="78" height="78" as="geometry" />
        </mxCell>
        <mxCell id="C7DWHRsoOKwwfCK8KFIu-3" value="" style="sketch=0;points=[[0,0,0],[0.25,0,0],[0.5,0,0],[0.75,0,0],[1,0,0],[0,1,0],[0.25,1,0],[0.5,1,0],[0.75,1,0],[1,1,0],[0,0.25,0],[0,0.5,0],[0,0.75,0],[1,0.25,0],[1,0.5,0],[1,0.75,0]];outlineConnect=0;fontColor=#232F3E;gradientColor=#F54749;gradientDirection=north;fillColor=#C7131F;strokeColor=#ffffff;dashed=0;verticalLabelPosition=bottom;verticalAlign=top;align=center;html=1;fontSize=12;fontStyle=0;aspect=fixed;shape=mxgraph.aws4.resourceIcon;resIcon=mxgraph.aws4.secrets_manager;" parent="1" vertex="1">
          <mxGeometry x="120" y="800" width="78" height="78" as="geometry" />
        </mxCell>
        <mxCell id="C7DWHRsoOKwwfCK8KFIu-4" value="" style="sketch=0;points=[[0,0,0],[0.25,0,0],[0.5,0,0],[0.75,0,0],[1,0,0],[0,1,0],[0.25,1,0],[0.5,1,0],[0.75,1,0],[1,1,0],[0,0.25,0],[0,0.5,0],[0,0.75,0],[1,0.25,0],[1,0.5,0],[1,0.75,0]];outlineConnect=0;fontColor=#232F3E;gradientColor=#F54749;gradientDirection=north;fillColor=#C7131F;strokeColor=#ffffff;dashed=0;verticalLabelPosition=bottom;verticalAlign=top;align=center;html=1;fontSize=12;fontStyle=0;aspect=fixed;shape=mxgraph.aws4.resourceIcon;resIcon=mxgraph.aws4.security_hub;" parent="1" vertex="1">
          <mxGeometry x="270" y="800" width="78" height="78" as="geometry" />
        </mxCell>
        <mxCell id="C7DWHRsoOKwwfCK8KFIu-5" value="" style="sketch=0;points=[[0,0,0],[0.25,0,0],[0.5,0,0],[0.75,0,0],[1,0,0],[0,1,0],[0.25,1,0],[0.5,1,0],[0.75,1,0],[1,1,0],[0,0.25,0],[0,0.5,0],[0,0.75,0],[1,0.25,0],[1,0.5,0],[1,0.75,0]];outlineConnect=0;fontColor=#232F3E;gradientColor=#F54749;gradientDirection=north;fillColor=#C7131F;strokeColor=#ffffff;dashed=0;verticalLabelPosition=bottom;verticalAlign=top;align=center;html=1;fontSize=12;fontStyle=0;aspect=fixed;shape=mxgraph.aws4.resourceIcon;resIcon=mxgraph.aws4.inspector;" parent="1" vertex="1">
          <mxGeometry x="270" y="670" width="78" height="78" as="geometry" />
        </mxCell>
        <mxCell id="C7DWHRsoOKwwfCK8KFIu-7" value="" style="sketch=0;points=[[0,0,0],[0.25,0,0],[0.5,0,0],[0.75,0,0],[1,0,0],[0,1,0],[0.25,1,0],[0.5,1,0],[0.75,1,0],[1,1,0],[0,0.25,0],[0,0.5,0],[0,0.75,0],[1,0.25,0],[1,0.5,0],[1,0.75,0]];outlineConnect=0;fontColor=#232F3E;gradientColor=#F54749;gradientDirection=north;fillColor=#C7131F;strokeColor=#ffffff;dashed=0;verticalLabelPosition=bottom;verticalAlign=top;align=center;html=1;fontSize=12;fontStyle=0;aspect=fixed;shape=mxgraph.aws4.resourceIcon;resIcon=mxgraph.aws4.certificate_manager_3;" parent="1" vertex="1">
          <mxGeometry x="120" y="930" width="78" height="78" as="geometry" />
        </mxCell>
        <mxCell id="C7DWHRsoOKwwfCK8KFIu-8" value="" style="sketch=0;points=[[0,0,0],[0.25,0,0],[0.5,0,0],[0.75,0,0],[1,0,0],[0,1,0],[0.25,1,0],[0.5,1,0],[0.75,1,0],[1,1,0],[0,0.25,0],[0,0.5,0],[0,0.75,0],[1,0.25,0],[1,0.5,0],[1,0.75,0]];outlineConnect=0;fontColor=#232F3E;gradientColor=#F54749;gradientDirection=north;fillColor=#C7131F;strokeColor=#ffffff;dashed=0;verticalLabelPosition=bottom;verticalAlign=top;align=center;html=1;fontSize=12;fontStyle=0;aspect=fixed;shape=mxgraph.aws4.resourceIcon;resIcon=mxgraph.aws4.macie;" parent="1" vertex="1">
          <mxGeometry x="270" y="930" width="78" height="78" as="geometry" />
        </mxCell>
        <mxCell id="C7DWHRsoOKwwfCK8KFIu-9" value="WAF" style="sketch=0;points=[[0,0,0],[0.25,0,0],[0.5,0,0],[0.75,0,0],[1,0,0],[0,1,0],[0.25,1,0],[0.5,1,0],[0.75,1,0],[1,1,0],[0,0.25,0],[0,0.5,0],[0,0.75,0],[1,0.25,0],[1,0.5,0],[1,0.75,0]];outlineConnect=0;fontColor=#232F3E;gradientColor=#F54749;gradientDirection=north;fillColor=#C7131F;strokeColor=#ffffff;dashed=0;verticalLabelPosition=bottom;verticalAlign=top;align=center;html=1;fontSize=15;fontStyle=0;aspect=fixed;shape=mxgraph.aws4.resourceIcon;resIcon=mxgraph.aws4.waf;" parent="1" vertex="1">
          <mxGeometry x="120" y="1060" width="78" height="78" as="geometry" />
        </mxCell>
        <mxCell id="C7DWHRsoOKwwfCK8KFIu-10" value="" style="sketch=0;points=[[0,0,0],[0.25,0,0],[0.5,0,0],[0.75,0,0],[1,0,0],[0,1,0],[0.25,1,0],[0.5,1,0],[0.75,1,0],[1,1,0],[0,0.25,0],[0,0.5,0],[0,0.75,0],[1,0.25,0],[1,0.5,0],[1,0.75,0]];points=[[0,0,0],[0.25,0,0],[0.5,0,0],[0.75,0,0],[1,0,0],[0,1,0],[0.25,1,0],[0.5,1,0],[0.75,1,0],[1,1,0],[0,0.25,0],[0,0.5,0],[0,0.75,0],[1,0.25,0],[1,0.5,0],[1,0.75,0]];outlineConnect=0;fontColor=#232F3E;gradientColor=#F34482;gradientDirection=north;fillColor=#BC1356;strokeColor=#ffffff;dashed=0;verticalLabelPosition=bottom;verticalAlign=top;align=center;html=1;fontSize=12;fontStyle=0;aspect=fixed;shape=mxgraph.aws4.resourceIcon;resIcon=mxgraph.aws4.config;" parent="1" vertex="1">
          <mxGeometry x="270" y="1060" width="78" height="78" as="geometry" />
        </mxCell>
        <mxCell id="C7DWHRsoOKwwfCK8KFIu-11" value="Logging and Monitoring" style="fillColor=none;strokeColor=#5A6C86;dashed=1;verticalAlign=top;fontStyle=0;fontColor=#5A6C86;shadow=0;glass=0;labelBorderColor=default;fontFamily=Helvetica;fontSize=17;" parent="1" vertex="1">
          <mxGeometry x="440" y="1010" width="790" height="170" as="geometry" />
        </mxCell>
        <mxCell id="C7DWHRsoOKwwfCK8KFIu-12" value="" style="sketch=0;points=[[0,0,0],[0.25,0,0],[0.5,0,0],[0.75,0,0],[1,0,0],[0,1,0],[0.25,1,0],[0.5,1,0],[0.75,1,0],[1,1,0],[0,0.25,0],[0,0.5,0],[0,0.75,0],[1,0.25,0],[1,0.5,0],[1,0.75,0]];points=[[0,0,0],[0.25,0,0],[0.5,0,0],[0.75,0,0],[1,0,0],[0,1,0],[0.25,1,0],[0.5,1,0],[0.75,1,0],[1,1,0],[0,0.25,0],[0,0.5,0],[0,0.75,0],[1,0.25,0],[1,0.5,0],[1,0.75,0]];outlineConnect=0;fontColor=#232F3E;gradientColor=#F34482;gradientDirection=north;fillColor=#BC1356;strokeColor=#ffffff;dashed=0;verticalLabelPosition=bottom;verticalAlign=top;align=center;html=1;fontSize=12;fontStyle=0;aspect=fixed;shape=mxgraph.aws4.resourceIcon;resIcon=mxgraph.aws4.cloudwatch_2;" parent="1" vertex="1">
          <mxGeometry x="480" y="1056" width="78" height="78" as="geometry" />
        </mxCell>
        <mxCell id="C7DWHRsoOKwwfCK8KFIu-13" value="" style="sketch=0;points=[[0,0,0],[0.25,0,0],[0.5,0,0],[0.75,0,0],[1,0,0],[0,1,0],[0.25,1,0],[0.5,1,0],[0.75,1,0],[1,1,0],[0,0.25,0],[0,0.5,0],[0,0.75,0],[1,0.25,0],[1,0.5,0],[1,0.75,0]];points=[[0,0,0],[0.25,0,0],[0.5,0,0],[0.75,0,0],[1,0,0],[0,1,0],[0.25,1,0],[0.5,1,0],[0.75,1,0],[1,1,0],[0,0.25,0],[0,0.5,0],[0,0.75,0],[1,0.25,0],[1,0.5,0],[1,0.75,0]];outlineConnect=0;fontColor=#232F3E;gradientColor=#F34482;gradientDirection=north;fillColor=#BC1356;strokeColor=#ffffff;dashed=0;verticalLabelPosition=bottom;verticalAlign=top;align=center;html=1;fontSize=12;fontStyle=0;aspect=fixed;shape=mxgraph.aws4.resourceIcon;resIcon=mxgraph.aws4.cloudtrail;" parent="1" vertex="1">
          <mxGeometry x="600" y="1056" width="78" height="78" as="geometry" />
        </mxCell>
        <mxCell id="C7DWHRsoOKwwfCK8KFIu-14" value="Elasticsearch" style="outlineConnect=0;dashed=0;verticalLabelPosition=bottom;verticalAlign=top;align=center;html=1;shape=mxgraph.aws3.elasticsearch_service;fillColor=#F58534;gradientColor=none;fontSize=15;" parent="1" vertex="1">
          <mxGeometry x="750" y="1054.5" width="67.5" height="81" as="geometry" />
        </mxCell>
        <mxCell id="C7DWHRsoOKwwfCK8KFIu-15" value="" style="sketch=0;points=[[0,0,0],[0.25,0,0],[0.5,0,0],[0.75,0,0],[1,0,0],[0,1,0],[0.25,1,0],[0.5,1,0],[0.75,1,0],[1,1,0],[0,0.25,0],[0,0.5,0],[0,0.75,0],[1,0.25,0],[1,0.5,0],[1,0.75,0]];outlineConnect=0;fontColor=#232F3E;gradientColor=#60A337;gradientDirection=north;fillColor=#277116;strokeColor=#ffffff;dashed=0;verticalLabelPosition=bottom;verticalAlign=top;align=center;html=1;fontSize=12;fontStyle=0;aspect=fixed;shape=mxgraph.aws4.resourceIcon;resIcon=mxgraph.aws4.s3;" parent="1" vertex="1">
          <mxGeometry x="990" y="1062" width="78" height="78" as="geometry" />
        </mxCell>
        <mxCell id="C7DWHRsoOKwwfCK8KFIu-16" value="" style="sketch=0;points=[[0,0,0],[0.25,0,0],[0.5,0,0],[0.75,0,0],[1,0,0],[0,1,0],[0.25,1,0],[0.5,1,0],[0.75,1,0],[1,1,0],[0,0.25,0],[0,0.5,0],[0,0.75,0],[1,0.25,0],[1,0.5,0],[1,0.75,0]];outlineConnect=0;fontColor=#232F3E;gradientColor=#4D72F3;gradientDirection=north;fillColor=#3334B9;strokeColor=#ffffff;dashed=0;verticalLabelPosition=bottom;verticalAlign=top;align=center;html=1;fontSize=12;fontStyle=0;aspect=fixed;shape=mxgraph.aws4.resourceIcon;resIcon=mxgraph.aws4.xray;" parent="1" vertex="1">
          <mxGeometry x="880" y="1062" width="78" height="78" as="geometry" />
        </mxCell>
        <mxCell id="1Mr_jDjq1AFkPDHEAxzT-36" style="edgeStyle=orthogonalEdgeStyle;rounded=0;orthogonalLoop=1;jettySize=auto;html=1;entryX=0;entryY=0.5;entryDx=0;entryDy=0;entryPerimeter=0;" edge="1" parent="1" source="OEp4yZZmpIIPvY6MrYqO-16" target="OEp4yZZmpIIPvY6MrYqO-9">
          <mxGeometry relative="1" as="geometry" />
        </mxCell>
        <mxCell id="OEp4yZZmpIIPvY6MrYqO-13" value="Corporate data center" style="points=[[0,0],[0.25,0],[0.5,0],[0.75,0],[1,0],[1,0.25],[1,0.5],[1,0.75],[1,1],[0.75,1],[0.5,1],[0.25,1],[0,1],[0,0.75],[0,0.5],[0,0.25]];outlineConnect=0;gradientColor=none;html=1;whiteSpace=wrap;fontSize=12;fontStyle=0;container=1;pointerEvents=0;collapsible=0;recursiveResize=0;shape=mxgraph.aws4.group;grIcon=mxgraph.aws4.group_corporate_data_center;strokeColor=#5A6C86;fillColor=none;verticalAlign=top;align=left;spacingLeft=30;fontColor=#5A6C86;dashed=0;labelBorderColor=default;fontFamily=Helvetica;" parent="1" vertex="1">
          <mxGeometry x="90" y="70" width="340" height="370" as="geometry" />
        </mxCell>
        <mxCell id="OEp4yZZmpIIPvY6MrYqO-30" value="Bank Infrastructure" style="rounded=0;whiteSpace=wrap;html=1;labelBorderColor=default;fontFamily=Helvetica;glass=0;shadow=0;fillColor=none;align=left;verticalAlign=top;spacing=2;fontSize=17;" parent="OEp4yZZmpIIPvY6MrYqO-13" vertex="1">
          <mxGeometry x="-30" y="-46" width="1810" height="1230" as="geometry" />
        </mxCell>
        <mxCell id="OEp4yZZmpIIPvY6MrYqO-5" value="On-premise" style="image;html=1;image=img/lib/clip_art/computers/Server_Tower_128x128.png;fontFamily=Helvetica;" parent="OEp4yZZmpIIPvY6MrYqO-13" vertex="1">
          <mxGeometry x="20" y="44" width="70" height="56" as="geometry" />
        </mxCell>
        <mxCell id="1Mr_jDjq1AFkPDHEAxzT-37" style="edgeStyle=orthogonalEdgeStyle;rounded=0;orthogonalLoop=1;jettySize=auto;html=1;" edge="1" parent="OEp4yZZmpIIPvY6MrYqO-13" source="OEp4yZZmpIIPvY6MrYqO-6" target="OEp4yZZmpIIPvY6MrYqO-16">
          <mxGeometry relative="1" as="geometry" />
        </mxCell>
        <mxCell id="OEp4yZZmpIIPvY6MrYqO-6" value="Teradata" style="html=1;verticalLabelPosition=bottom;align=center;labelBackgroundColor=#ffffff;verticalAlign=top;strokeWidth=2;strokeColor=#0080F0;shadow=0;dashed=0;shape=mxgraph.ios7.icons.data;fontFamily=Helvetica;labelBorderColor=default;" parent="OEp4yZZmpIIPvY6MrYqO-13" vertex="1">
          <mxGeometry x="110" y="124" width="50" height="70" as="geometry" />
        </mxCell>
        <mxCell id="OEp4yZZmpIIPvY6MrYqO-16" value="DataSync Agent" style="sketch=0;outlineConnect=0;fontColor=#232F3E;gradientColor=none;fillColor=#067F68;strokeColor=none;dashed=0;verticalLabelPosition=bottom;verticalAlign=top;align=center;html=1;fontSize=12;fontStyle=0;aspect=fixed;shape=mxgraph.aws4.agent2;labelBorderColor=default;fontFamily=Helvetica;" parent="OEp4yZZmpIIPvY6MrYqO-13" vertex="1">
          <mxGeometry x="220" y="120" width="78" height="78" as="geometry" />
        </mxCell>
      </root>
    </mxGraphModel>
  </diagram>
</mxfile>
